<mxfile host="app.diagrams.net" agent="Mozilla/5.0 (Windows NT 10.0; Win64; x64) AppleWebKit/537.36 (KHTML, like Gecko) Chrome/128.0.0.0 Safari/537.36" version="24.7.16">
  <diagram name="페이지-1" id="G2dDJSj4erQJF3g-Pp5N">
    <mxGraphModel dx="1434" dy="780" grid="1" gridSize="10" guides="1" tooltips="1" connect="1" arrows="1" fold="1" page="1" pageScale="1" pageWidth="827" pageHeight="1169" math="0" shadow="0">
      <root>
        <mxCell id="0" />
        <mxCell id="1" parent="0" />
        <mxCell id="3PEuxEQlp8qoxlC0RshK-1" value="Client" style="rounded=0;whiteSpace=wrap;html=1;" vertex="1" parent="1">
          <mxGeometry x="140" y="90" width="120" height="60" as="geometry" />
        </mxCell>
        <mxCell id="3PEuxEQlp8qoxlC0RshK-2" value="Server" style="rounded=0;whiteSpace=wrap;html=1;" vertex="1" parent="1">
          <mxGeometry x="450" y="90" width="120" height="60" as="geometry" />
        </mxCell>
        <mxCell id="3PEuxEQlp8qoxlC0RshK-3" value="" style="endArrow=none;html=1;rounded=0;entryX=0.5;entryY=1;entryDx=0;entryDy=0;" edge="1" parent="1" target="3PEuxEQlp8qoxlC0RshK-1">
          <mxGeometry width="50" height="50" relative="1" as="geometry">
            <mxPoint x="200" y="600" as="sourcePoint" />
            <mxPoint x="170" y="190" as="targetPoint" />
          </mxGeometry>
        </mxCell>
        <mxCell id="3PEuxEQlp8qoxlC0RshK-4" value="" style="endArrow=none;html=1;rounded=0;entryX=0.5;entryY=1;entryDx=0;entryDy=0;" edge="1" parent="1">
          <mxGeometry width="50" height="50" relative="1" as="geometry">
            <mxPoint x="520" y="600" as="sourcePoint" />
            <mxPoint x="520" y="150" as="targetPoint" />
          </mxGeometry>
        </mxCell>
        <mxCell id="3PEuxEQlp8qoxlC0RshK-5" value="Lock Watch Start Request" style="text;html=1;align=center;verticalAlign=middle;whiteSpace=wrap;rounded=0;" vertex="1" parent="1">
          <mxGeometry x="200" y="188" width="320" height="30" as="geometry" />
        </mxCell>
        <mxCell id="3PEuxEQlp8qoxlC0RshK-6" value="Lock Watch Start Response" style="text;html=1;align=center;verticalAlign=middle;whiteSpace=wrap;rounded=0;" vertex="1" parent="1">
          <mxGeometry x="200" y="250" width="320" height="30" as="geometry" />
        </mxCell>
        <mxCell id="3PEuxEQlp8qoxlC0RshK-7" value="Lock Stop Request" style="text;html=1;align=center;verticalAlign=middle;whiteSpace=wrap;rounded=0;" vertex="1" parent="1">
          <mxGeometry x="200" y="505" width="320" height="30" as="geometry" />
        </mxCell>
        <mxCell id="3PEuxEQlp8qoxlC0RshK-8" value="Lock Stop Response" style="text;html=1;align=center;verticalAlign=middle;whiteSpace=wrap;rounded=0;" vertex="1" parent="1">
          <mxGeometry x="200" y="566" width="320" height="30" as="geometry" />
        </mxCell>
        <mxCell id="3PEuxEQlp8qoxlC0RshK-11" value="" style="endArrow=classic;html=1;rounded=0;exitX=0;exitY=1;exitDx=0;exitDy=0;entryX=1;entryY=1;entryDx=0;entryDy=0;" edge="1" parent="1" source="3PEuxEQlp8qoxlC0RshK-5" target="3PEuxEQlp8qoxlC0RshK-5">
          <mxGeometry width="50" height="50" relative="1" as="geometry">
            <mxPoint x="250" y="270" as="sourcePoint" />
            <mxPoint x="300" y="220" as="targetPoint" />
          </mxGeometry>
        </mxCell>
        <mxCell id="3PEuxEQlp8qoxlC0RshK-12" value="" style="endArrow=classic;html=1;rounded=0;exitX=1;exitY=1;exitDx=0;exitDy=0;entryX=0;entryY=1;entryDx=0;entryDy=0;" edge="1" parent="1" source="3PEuxEQlp8qoxlC0RshK-6" target="3PEuxEQlp8qoxlC0RshK-6">
          <mxGeometry width="50" height="50" relative="1" as="geometry">
            <mxPoint x="360" y="350" as="sourcePoint" />
            <mxPoint x="410" y="300" as="targetPoint" />
          </mxGeometry>
        </mxCell>
        <mxCell id="3PEuxEQlp8qoxlC0RshK-13" value="" style="endArrow=classic;html=1;rounded=0;exitX=0;exitY=1;exitDx=0;exitDy=0;entryX=1;entryY=1;entryDx=0;entryDy=0;" edge="1" parent="1">
          <mxGeometry width="50" height="50" relative="1" as="geometry">
            <mxPoint x="200" y="535" as="sourcePoint" />
            <mxPoint x="520" y="535" as="targetPoint" />
          </mxGeometry>
        </mxCell>
        <mxCell id="3PEuxEQlp8qoxlC0RshK-14" value="" style="endArrow=classic;html=1;rounded=0;exitX=1;exitY=1;exitDx=0;exitDy=0;entryX=0;entryY=1;entryDx=0;entryDy=0;" edge="1" parent="1">
          <mxGeometry width="50" height="50" relative="1" as="geometry">
            <mxPoint x="520" y="597" as="sourcePoint" />
            <mxPoint x="200" y="597" as="targetPoint" />
          </mxGeometry>
        </mxCell>
        <mxCell id="3PEuxEQlp8qoxlC0RshK-17" style="edgeStyle=orthogonalEdgeStyle;rounded=0;orthogonalLoop=1;jettySize=auto;html=1;" edge="1" parent="1">
          <mxGeometry relative="1" as="geometry">
            <mxPoint x="200" y="427" as="targetPoint" />
            <mxPoint x="598.3400000000001" y="427" as="sourcePoint" />
          </mxGeometry>
        </mxCell>
        <mxCell id="3PEuxEQlp8qoxlC0RshK-19" value="Notify Lock / UnLock" style="text;html=1;align=center;verticalAlign=middle;whiteSpace=wrap;rounded=0;" vertex="1" parent="1">
          <mxGeometry x="200" y="397" width="320" height="30" as="geometry" />
        </mxCell>
        <mxCell id="3PEuxEQlp8qoxlC0RshK-24" value="" style="shape=image;verticalLabelPosition=bottom;labelBackgroundColor=default;verticalAlign=top;aspect=fixed;imageAspect=0;image=https://mirero-company.monday.com/protected_static/16893016/resources/1669059206/large-image-from-clipboard.png;" vertex="1" parent="1">
          <mxGeometry x="600" y="390" width="183" height="79" as="geometry" />
        </mxCell>
        <mxCell id="3PEuxEQlp8qoxlC0RshK-26" value="" style="shape=image;verticalLabelPosition=bottom;labelBackgroundColor=default;verticalAlign=top;aspect=fixed;imageAspect=0;image=https://mirero-company.monday.com/protected_static/16893016/resources/1669060941/large-image-from-clipboard.png;" vertex="1" parent="1">
          <mxGeometry x="560" y="370" width="240" height="10.95" as="geometry" />
        </mxCell>
      </root>
    </mxGraphModel>
  </diagram>
</mxfile>
